<svg width="700" height="463" viewBox="0 0 700 463" class="keymap" xmlns="http://www.w3.org/2000/svg" xmlns:xlink="http://www.w3.org/1999/xlink">
<style>/* inherit to force styles through use tags */
svg path {
    fill: inherit;
}

/* font and background color specifications */
svg.keymap {
    font-family: SFMono-Regular,Consolas,Liberation Mono,Menlo,monospace;
    font-size: 14px;
    font-kerning: normal;
    text-rendering: optimizeLegibility;
    fill: #24292e;
}

/* default key styling */
rect.key {
    fill: #f6f8fa;
}

rect.key, rect.combo {
    stroke: #c9cccf;
    stroke-width: 1;
}

/* default key side styling, only used is draw_key_sides is set */
rect.side {
    filter: brightness(90%);
}

/* color accent for combo boxes */
rect.combo, rect.combo-separate {
    fill: #cdf;
}

/* color accent for held keys */
rect.held, rect.combo.held {
    fill: #fdd;
}

/* color accent for ghost (optional) keys */
rect.ghost, rect.combo.ghost {
    stroke-dasharray: 4, 4;
    stroke-width: 2;
}

text {
    text-anchor: middle;
    dominant-baseline: middle;
}

/* styling for layer labels */
text.label {
    font-weight: bold;
    text-anchor: start;
    stroke: white;
    stroke-width: 4;
    paint-order: stroke;
}

/* styling for optional footer */
text.footer {
    text-anchor: end;
    dominant-baseline: auto;
    stroke: white;
    stroke-width: 4;
    paint-order: stroke;
}

/* styling for combo tap, and key non-tap label text */
text.combo, text.hold, text.shifted, text.left, text.right, text.tl, text.tr, text.bl, text.br {
    font-size: 11px;
}

text.hold, text.bl, text.br {
    text-anchor: middle;
    dominant-baseline: auto;
}

text.shifted, text.tl, text.tr {
    text-anchor: middle;
    dominant-baseline: hanging;
}

text.left, text.tl, text.bl {
    text-anchor: start;
}

text.right, text.tr, text.br {
    text-anchor: end;
}

text.layer-activator {
    text-decoration: underline;
}

/* styling for hold/shifted label text in combo box */
text.combo.hold, text.combo.shifted, text.combo.left, text.combo.right {
    font-size: 8px;
}

/* lighter symbol for transparent keys */
text.trans {
    fill: #7b7e81;
}

/* styling for combo dendrons */
path.combo {
    stroke-width: 1;
    stroke: gray;
    fill: none;
}

/* Start Tabler Icons Cleanup */
/* cannot use height/width with glyphs */
.icon-tabler > path {
    fill: inherit;
    stroke: inherit;
    stroke-width: 2;
}
/* hide tabler's default box */
.icon-tabler > path[stroke="none"][fill="none"] {
    visibility: hidden;
}
/* End Tabler Icons Cleanup */
</style>
<g transform="translate(30, 0)" class="layer-Base">
<text x="0" y="28" class="label" id="Base">Base:</text>
<g transform="translate(0, 60)">
<g transform="translate(46, 65) rotate(10.0)" class="key keypos-0">
<rect rx="6" ry="6" x="-26" y="-37" width="52" height="74" class="key"/>
<text x="0" y="0" class="key tap">Q</text>
</g>
<g transform="translate(106, 38) rotate(10.0)" class="key keypos-1">
<rect rx="6" ry="6" x="-26" y="-26" width="52" height="52" class="key"/>
<text x="0" y="0" class="key tap">W</text>
</g>
<g transform="translate(181, 35) rotate(18.0)" class="key keypos-2">
<rect rx="6" ry="6" x="-26" y="-26" width="52" height="52" class="key"/>
<text x="0" y="0" class="key tap">E</text>
</g>
<g transform="translate(234, 85) rotate(22.0)" class="key keypos-3">
<rect rx="6" ry="6" x="-26" y="-26" width="52" height="52" class="key"/>
<text x="0" y="0" class="key tap">R</text>
</g>
<g transform="translate(276, 136) rotate(22.0)" class="key keypos-4">
<rect rx="6" ry="6" x="-26" y="-26" width="52" height="52" class="key"/>
<text x="0" y="0" class="key tap">T</text>
</g>
<g transform="translate(364, 136) rotate(-22.0)" class="key keypos-5">
<rect rx="6" ry="6" x="-26" y="-26" width="52" height="52" class="key"/>
<text x="0" y="0" class="key tap">Y</text>
</g>
<g transform="translate(407, 85) rotate(-22.0)" class="key keypos-6">
<rect rx="6" ry="6" x="-26" y="-26" width="52" height="52" class="key"/>
<text x="0" y="0" class="key tap">U</text>
</g>
<g transform="translate(459, 35) rotate(-18.0)" class="key keypos-7">
<rect rx="6" ry="6" x="-26" y="-26" width="52" height="52" class="key"/>
<text x="0" y="0" class="key tap">I</text>
</g>
<g transform="translate(534, 38) rotate(-10.0)" class="key keypos-8">
<rect rx="6" ry="6" x="-26" y="-26" width="52" height="52" class="key"/>
<text x="0" y="0" class="key tap">O</text>
</g>
<g transform="translate(594, 65) rotate(-10.0)" class="key keypos-9">
<rect rx="6" ry="6" x="-26" y="-37" width="52" height="74" class="key"/>
<text x="0" y="0" class="key tap">P</text>
</g>
<g transform="translate(28, 132)" class="key keypos-10">
<rect rx="6" ry="6" x="-26" y="-26" width="52" height="52" class="key"/>
<text x="0" y="0" class="key tap">A</text>
</g>
<g transform="translate(97, 95) rotate(10.0)" class="key keypos-11">
<rect rx="6" ry="6" x="-26" y="-26" width="52" height="52" class="key"/>
<text x="0" y="0" class="key tap">S</text>
</g>
<g transform="translate(166, 90) rotate(18.0)" class="key keypos-12">
<rect rx="6" ry="6" x="-26" y="-26" width="52" height="52" class="key"/>
<text x="0" y="0" class="key tap">D</text>
</g>
<g transform="translate(214, 139) rotate(22.0)" class="key keypos-13">
<rect rx="6" ry="6" x="-26" y="-26" width="52" height="52" class="key"/>
<text x="0" y="0" class="key tap">F</text>
</g>
<g transform="translate(257, 189) rotate(22.0)" class="key keypos-14">
<rect rx="6" ry="6" x="-26" y="-26" width="52" height="52" class="key"/>
<text x="0" y="0" class="key tap">G</text>
</g>
<g transform="translate(383, 189) rotate(-22.0)" class="key keypos-15">
<rect rx="6" ry="6" x="-26" y="-26" width="52" height="52" class="key"/>
<text x="0" y="0" class="key tap">H</text>
</g>
<g transform="translate(426, 139) rotate(-22.0)" class="key keypos-16">
<rect rx="6" ry="6" x="-26" y="-26" width="52" height="52" class="key"/>
<text x="0" y="0" class="key tap">J</text>
</g>
<g transform="translate(474, 90) rotate(-18.0)" class="key keypos-17">
<rect rx="6" ry="6" x="-26" y="-26" width="52" height="52" class="key"/>
<text x="0" y="0" class="key tap">K</text>
</g>
<g transform="translate(543, 95) rotate(-10.0)" class="key keypos-18">
<rect rx="6" ry="6" x="-26" y="-26" width="52" height="52" class="key"/>
<text x="0" y="0" class="key tap">L</text>
</g>
<g transform="translate(612, 132)" class="key keypos-19">
<rect rx="6" ry="6" x="-26" y="-26" width="52" height="52" class="key"/>
<text x="0" y="0" class="key tap">;</text>
<text x="0" y="-24" class="key shifted">:</text>
</g>
<g transform="translate(28, 190)" class="key keypos-20">
<rect rx="6" ry="6" x="-26" y="-26" width="52" height="52" class="key"/>
<text x="0" y="0" class="key tap">Z</text>
</g>
<g transform="translate(88, 152) rotate(10.0)" class="key keypos-21">
<rect rx="6" ry="6" x="-26" y="-26" width="52" height="52" class="key"/>
<text x="0" y="0" class="key tap">X</text>
</g>
<g transform="translate(150, 145) rotate(18.0)" class="key keypos-22">
<rect rx="6" ry="6" x="-26" y="-26" width="52" height="52" class="key"/>
<text x="0" y="0" class="key tap">C</text>
</g>
<g transform="translate(195, 192) rotate(22.0)" class="key keypos-23">
<rect rx="6" ry="6" x="-26" y="-26" width="52" height="52" class="key"/>
<text x="0" y="0" class="key tap">V</text>
</g>
<g transform="translate(223, 270) rotate(37.0)" class="key keypos-24">
<rect rx="6" ry="6" x="-26" y="-26" width="52" height="52" class="key"/>
<text x="0" y="0" class="key tap">B</text>
</g>
<g transform="translate(417, 270) rotate(-37.0)" class="key keypos-25">
<rect rx="6" ry="6" x="-26" y="-26" width="52" height="52" class="key"/>
<text x="0" y="0" class="key tap">N</text>
</g>
<g transform="translate(445, 192) rotate(-22.0)" class="key keypos-26">
<rect rx="6" ry="6" x="-26" y="-26" width="52" height="52" class="key"/>
<text x="0" y="0" class="key tap">M</text>
</g>
<g transform="translate(491, 145) rotate(-18.0)" class="key keypos-27">
<rect rx="6" ry="6" x="-26" y="-26" width="52" height="52" class="key"/>
<text x="0" y="0" class="key tap">,</text>
<text x="0" y="-24" class="key shifted">&lt;</text>
</g>
<g transform="translate(552, 152) rotate(-10.0)" class="key keypos-28">
<rect rx="6" ry="6" x="-26" y="-26" width="52" height="52" class="key"/>
<text x="0" y="0" class="key tap">.</text>
<text x="0" y="-24" class="key shifted">&gt;</text>
</g>
<g transform="translate(612, 190)" class="key keypos-29">
<rect rx="6" ry="6" x="-26" y="-26" width="52" height="52" class="key"/>
<text x="0" y="0" class="key tap">/</text>
<text x="0" y="-24" class="key shifted">?</text>
</g>
<g transform="translate(95, 207)" class="key keypos-30">
<rect rx="6" ry="6" x="-23" y="-23" width="46" height="46" class="key"/>
<text x="0" y="0" class="key tap">↑</text>
</g>
<g transform="translate(45, 258)" class="key keypos-31">
<rect rx="6" ry="6" x="-23" y="-23" width="46" height="46" class="key"/>
<text x="0" y="0" class="key tap">←</text>
</g>
<g transform="translate(95, 258)" class="key keypos-32">
<rect rx="6" ry="6" x="-23" y="-23" width="46" height="46" class="key"/>
<text x="0" y="0" class="key tap">⏎</text>
</g>
<g transform="translate(146, 258)" class="key keypos-33">
<rect rx="6" ry="6" x="-23" y="-23" width="46" height="46" class="key"/>
<text x="0" y="0" class="key tap">→</text>
</g>
<g transform="translate(95, 308)" class="key keypos-34">
<rect rx="6" ry="6" x="-23" y="-23" width="46" height="46" class="key"/>
<text x="0" y="0" class="key tap">↓</text>
</g>
<g transform="translate(268, 309) rotate(37.0)" class="key keypos-35">
<rect rx="6" ry="6" x="-26" y="-26" width="52" height="52" class="key"/>
<text x="0" y="0" class="key tap">⌫</text>
</g>
<g transform="translate(372, 309) rotate(-37.0)" class="key keypos-36">
<rect rx="6" ry="6" x="-26" y="-26" width="52" height="52" class="key"/>
<text x="0" y="0" class="key tap">⎵</text>
</g>
<g class="combo combopos-0">
<path d="M161,9 h-109 a6.0,6.0 0 0 0 -6.0,6.0 v23" class="combo"/>
<path d="M161,9 h109 a6.0,6.0 0 0 1 6.0,6.0 v101" class="combo"/>
<rect rx="6" ry="6" x="136" y="-4" width="50" height="26" class="combo"/>
<text x="161" y="9" class="combo tap">
<tspan x="161" dy="-0.6em">Studio</tspan><tspan x="161" dy="1.2em">Unlock</tspan>
</text>
</g>
<g class="combo combopos-1">
<path d="M320,203 l-34,-52" class="combo"/>
<path d="M320,203 l34,-52" class="combo"/>
<path d="M320,203 l-82,57" class="combo"/>
<path d="M320,203 l82,57" class="combo"/>
<rect rx="6" ry="6" x="295" y="190" width="50" height="26" class="combo"/>
<text x="320" y="203" class="combo tap">
<tspan x="320" dy="-0.6em">Boot</tspan><tspan x="320" dy="1.2em">loader</tspan>
</text>
</g>
</g>
</g>
</svg>
