<svg width="452" height="616" viewBox="0 0 452 616" class="keymap" xmlns="http://www.w3.org/2000/svg" xmlns:xlink="http://www.w3.org/1999/xlink">
<style>/* inherit to force styles through use tags */
svg path {
    fill: inherit;
}

/* font and background color specifications */
svg.keymap {
    font-family: SFMono-Regular,Consolas,Liberation Mono,Menlo,monospace;
    font-size: 14px;
    font-kerning: normal;
    text-rendering: optimizeLegibility;
    fill: #24292e;
}

/* default key styling */
rect.key {
    fill: #f6f8fa;
}

rect.key, rect.combo {
    stroke: #c9cccf;
    stroke-width: 1;
}

/* default key side styling, only used is draw_key_sides is set */
rect.side {
    filter: brightness(90%);
}

/* color accent for combo boxes */
rect.combo, rect.combo-separate {
    fill: #cdf;
}

/* color accent for held keys */
rect.held, rect.combo.held {
    fill: #fdd;
}

/* color accent for ghost (optional) keys */
rect.ghost, rect.combo.ghost {
    stroke-dasharray: 4, 4;
    stroke-width: 2;
}

text {
    text-anchor: middle;
    dominant-baseline: middle;
}

/* styling for layer labels */
text.label {
    font-weight: bold;
    text-anchor: start;
    stroke: white;
    stroke-width: 4;
    paint-order: stroke;
}

/* styling for optional footer */
text.footer {
    text-anchor: end;
    dominant-baseline: auto;
    stroke: white;
    stroke-width: 4;
    paint-order: stroke;
}

/* styling for combo tap, and key non-tap label text */
text.combo, text.hold, text.shifted, text.left, text.right {
    font-size: 11px;
}

text.hold {
    text-anchor: middle;
    dominant-baseline: auto;
}

text.shifted {
    text-anchor: middle;
    dominant-baseline: hanging;
}

text.left {
    text-anchor: start;
}

text.right {
    text-anchor: end;
}

text.layer-activator {
    text-decoration: underline;
}

/* styling for hold/shifted label text in combo box */
text.combo.hold, text.combo.shifted, text.combo.left, text.combo.right {
    font-size: 8px;
}

/* lighter symbol for transparent keys */
text.trans {
    fill: #7b7e81;
}

/* styling for combo dendrons */
path.combo {
    stroke-width: 1;
    stroke: gray;
    fill: none;
}

/* Start Tabler Icons Cleanup */
/* cannot use height/width with glyphs */
.icon-tabler > path {
    fill: inherit;
    stroke: inherit;
    stroke-width: 2;
}
/* hide tabler's default box */
.icon-tabler > path[stroke="none"][fill="none"] {
    visibility: hidden;
}
/* End Tabler Icons Cleanup */
</style>
<g transform="translate(30, 0)" class="layer-default">
<text x="0" y="28" class="label" id="default">default:</text>
<g transform="translate(0, 56)">
<g transform="translate(364, 28)" class="key keypos-0">
<rect rx="6" ry="6" x="-26" y="-26" width="52" height="52" class="key"/>
<text x="0" y="0" class="key tap">&amp;pin0</text>
</g>
<g transform="translate(364, 84)" class="key keypos-1">
<rect rx="6" ry="6" x="-26" y="-26" width="52" height="52" class="key"/>
<text x="0" y="0" class="key tap">&amp;pin1</text>
</g>
<g transform="translate(364, 140)" class="key keypos-2">
<rect rx="6" ry="6" x="-26" y="-26" width="52" height="52" class="key"/>
<text x="0" y="0" class="key tap">&amp;pin2</text>
</g>
<g transform="translate(364, 196)" class="key keypos-3">
<rect rx="6" ry="6" x="-26" y="-26" width="52" height="52" class="key"/>
<text x="0" y="0" class="key tap">&amp;pin3</text>
</g>
<g transform="translate(364, 252)" class="key keypos-4">
<rect rx="6" ry="6" x="-26" y="-26" width="52" height="52" class="key"/>
<text x="0" y="0" class="key tap">&amp;pin4</text>
</g>
<g transform="translate(364, 308)" class="key keypos-5">
<rect rx="6" ry="6" x="-26" y="-26" width="52" height="52" class="key"/>
<text x="0" y="0" class="key tap">&amp;pin5</text>
</g>
<g transform="translate(364, 364)" class="key keypos-6">
<rect rx="6" ry="6" x="-26" y="-26" width="52" height="52" class="key"/>
<text x="0" y="0" class="key tap">&amp;pin6</text>
</g>
<g transform="translate(364, 420)" class="key keypos-7">
<rect rx="6" ry="6" x="-26" y="-26" width="52" height="52" class="key"/>
<text x="0" y="0" class="key tap">&amp;pin7</text>
</g>
<g transform="translate(364, 476)" class="key keypos-8">
<rect rx="6" ry="6" x="-26" y="-26" width="52" height="52" class="key"/>
<text x="0" y="0" class="key tap">&amp;pin8</text>
</g>
<g transform="translate(308, 476)" class="key keypos-9">
<rect rx="6" ry="6" x="-26" y="-26" width="52" height="52" class="key"/>
<text x="0" y="0" class="key tap">&amp;pin9</text>
</g>
<g transform="translate(252, 476)" class="key keypos-10">
<rect rx="6" ry="6" x="-26" y="-26" width="52" height="52" class="key"/>
<text x="0" y="0" class="key tap">&amp;pin10</text>
</g>
<g transform="translate(196, 476)" class="key keypos-11">
<rect rx="6" ry="6" x="-26" y="-26" width="52" height="52" class="key"/>
<text x="0" y="0" class="key tap">&amp;pin11</text>
</g>
<g transform="translate(140, 476)" class="key keypos-12">
<rect rx="6" ry="6" x="-26" y="-26" width="52" height="52" class="key"/>
<text x="0" y="0" class="key tap">&amp;pin12</text>
</g>
<g transform="translate(84, 476)" class="key keypos-13">
<rect rx="6" ry="6" x="-26" y="-26" width="52" height="52" class="key"/>
<text x="0" y="0" class="key tap">&amp;pin13</text>
</g>
<g transform="translate(28, 476)" class="key keypos-14">
<rect rx="6" ry="6" x="-26" y="-26" width="52" height="52" class="key"/>
<text x="0" y="0" class="key tap">&amp;pin14</text>
</g>
<g transform="translate(28, 420)" class="key keypos-15">
<rect rx="6" ry="6" x="-26" y="-26" width="52" height="52" class="key"/>
<text x="0" y="0" class="key tap">&amp;pin15</text>
</g>
<g transform="translate(119, 399)" class="key keypos-16">
<rect rx="6" ry="6" x="-19" y="-19" width="38" height="38" class="key"/>
<text x="0" y="0" class="key tap">&amp;pin17</text>
</g>
<g transform="translate(119, 357)" class="key keypos-17">
<rect rx="6" ry="6" x="-19" y="-19" width="38" height="38" class="key"/>
<text x="0" y="0" class="key tap">&amp;pin18</text>
</g>
<g transform="translate(119, 315)" class="key keypos-18">
<rect rx="6" ry="6" x="-19" y="-19" width="38" height="38" class="key"/>
<text x="0" y="0" class="key tap">&amp;pin19</text>
</g>
<g transform="translate(119, 273)" class="key keypos-19">
<rect rx="6" ry="6" x="-19" y="-19" width="38" height="38" class="key"/>
<text x="0" y="0" class="key tap">&amp;pin20</text>
</g>
<g transform="translate(119, 231)" class="key keypos-20">
<rect rx="6" ry="6" x="-19" y="-19" width="38" height="38" class="key"/>
<text x="0" y="0" class="key tap">&amp;pin21</text>
</g>
<g transform="translate(119, 189)" class="key keypos-21">
<rect rx="6" ry="6" x="-19" y="-19" width="38" height="38" class="key"/>
<text x="0" y="0" class="key tap">&amp;pin22</text>
</g>
<g transform="translate(119, 147)" class="key keypos-22">
<rect rx="6" ry="6" x="-19" y="-19" width="38" height="38" class="key"/>
<text x="0" y="0" class="key tap">&amp;pin23</text>
</g>
<g transform="translate(119, 105)" class="key keypos-23">
<rect rx="6" ry="6" x="-19" y="-19" width="38" height="38" class="key"/>
<text x="0" y="0" class="key tap">&amp;pin24</text>
</g>
<g transform="translate(119, 63)" class="key keypos-24">
<rect rx="6" ry="6" x="-19" y="-19" width="38" height="38" class="key"/>
<text x="0" y="0" class="key tap">&amp;pin25</text>
</g>
<g transform="translate(28, 364)" class="key keypos-25">
<rect rx="6" ry="6" x="-26" y="-26" width="52" height="52" class="key"/>
<text x="0" y="0" class="key tap">&amp;pin26</text>
</g>
<g transform="translate(28, 308)" class="key keypos-26">
<rect rx="6" ry="6" x="-26" y="-26" width="52" height="52" class="key"/>
<text x="0" y="0" class="key tap">&amp;pin27</text>
</g>
<g transform="translate(28, 252)" class="key keypos-27">
<rect rx="6" ry="6" x="-26" y="-26" width="52" height="52" class="key"/>
<text x="0" y="0" class="key tap">&amp;pin28</text>
</g>
<g transform="translate(28, 196)" class="key keypos-28">
<rect rx="6" ry="6" x="-26" y="-26" width="52" height="52" class="key"/>
<text x="0" y="0" class="key tap">&amp;pin29</text>
</g>
</g>
</g>
</svg>
